<mxfile host="Electron" agent="Mozilla/5.0 (Windows NT 10.0; Win64; x64) AppleWebKit/537.36 (KHTML, like Gecko) draw.io/24.7.17 Chrome/128.0.6613.36 Electron/32.0.1 Safari/537.36" version="24.7.17">
  <diagram name="Página-1" id="EKB3wmEzgfeK36pFyJts">
    <mxGraphModel dx="1450" dy="669" grid="1" gridSize="10" guides="1" tooltips="1" connect="1" arrows="1" fold="1" page="0" pageScale="1" pageWidth="827" pageHeight="1169" math="0" shadow="0">
      <root>
        <mxCell id="0" />
        <mxCell id="1" parent="0" />
        <mxCell id="uPAJqwpwGLfD--nRidM_-2" value="&lt;font style=&quot;font-size: 48px;&quot;&gt;Tienda de artículos tecnologicos&lt;/font&gt;" style="text;html=1;align=center;verticalAlign=middle;resizable=0;points=[];autosize=1;strokeColor=none;fillColor=none;" vertex="1" parent="1">
          <mxGeometry x="-60" y="20" width="710" height="70" as="geometry" />
        </mxCell>
        <mxCell id="uPAJqwpwGLfD--nRidM_-5" style="edgeStyle=orthogonalEdgeStyle;rounded=0;orthogonalLoop=1;jettySize=auto;html=1;" edge="1" parent="1" source="uPAJqwpwGLfD--nRidM_-3" target="uPAJqwpwGLfD--nRidM_-4">
          <mxGeometry relative="1" as="geometry" />
        </mxCell>
        <mxCell id="uPAJqwpwGLfD--nRidM_-9" style="edgeStyle=orthogonalEdgeStyle;rounded=0;orthogonalLoop=1;jettySize=auto;html=1;" edge="1" parent="1" source="uPAJqwpwGLfD--nRidM_-3" target="uPAJqwpwGLfD--nRidM_-8">
          <mxGeometry relative="1" as="geometry" />
        </mxCell>
        <mxCell id="uPAJqwpwGLfD--nRidM_-12" style="edgeStyle=orthogonalEdgeStyle;rounded=0;orthogonalLoop=1;jettySize=auto;html=1;" edge="1" parent="1" source="uPAJqwpwGLfD--nRidM_-3" target="uPAJqwpwGLfD--nRidM_-11">
          <mxGeometry relative="1" as="geometry" />
        </mxCell>
        <mxCell id="uPAJqwpwGLfD--nRidM_-3" value="APLICACIÓN" style="rounded=0;whiteSpace=wrap;html=1;" vertex="1" parent="1">
          <mxGeometry x="340" y="170" width="120" height="60" as="geometry" />
        </mxCell>
        <mxCell id="uPAJqwpwGLfD--nRidM_-4" value="mariaDB" style="shape=cylinder3;whiteSpace=wrap;html=1;boundedLbl=1;backgroundOutline=1;size=15;" vertex="1" parent="1">
          <mxGeometry x="550" y="280" width="60" height="80" as="geometry" />
        </mxCell>
        <mxCell id="uPAJqwpwGLfD--nRidM_-6" value="python: FLASK" style="rounded=0;whiteSpace=wrap;html=1;" vertex="1" parent="1">
          <mxGeometry x="340" y="400" width="120" height="60" as="geometry" />
        </mxCell>
        <mxCell id="uPAJqwpwGLfD--nRidM_-10" style="edgeStyle=orthogonalEdgeStyle;rounded=0;orthogonalLoop=1;jettySize=auto;html=1;" edge="1" parent="1" source="uPAJqwpwGLfD--nRidM_-8" target="uPAJqwpwGLfD--nRidM_-6">
          <mxGeometry relative="1" as="geometry" />
        </mxCell>
        <mxCell id="uPAJqwpwGLfD--nRidM_-8" value="BACKEND" style="rounded=0;whiteSpace=wrap;html=1;" vertex="1" parent="1">
          <mxGeometry x="340" y="290" width="120" height="60" as="geometry" />
        </mxCell>
        <mxCell id="uPAJqwpwGLfD--nRidM_-14" style="edgeStyle=orthogonalEdgeStyle;rounded=0;orthogonalLoop=1;jettySize=auto;html=1;" edge="1" parent="1" source="uPAJqwpwGLfD--nRidM_-11" target="uPAJqwpwGLfD--nRidM_-13">
          <mxGeometry relative="1" as="geometry">
            <mxPoint x="80" y="200" as="targetPoint" />
          </mxGeometry>
        </mxCell>
        <mxCell id="uPAJqwpwGLfD--nRidM_-11" value="FRONTEND" style="rounded=0;whiteSpace=wrap;html=1;" vertex="1" parent="1">
          <mxGeometry x="140" y="170" width="120" height="60" as="geometry" />
        </mxCell>
        <mxCell id="uPAJqwpwGLfD--nRidM_-13" value="REACT" style="rounded=0;whiteSpace=wrap;html=1;" vertex="1" parent="1">
          <mxGeometry x="-60" y="170" width="120" height="60" as="geometry" />
        </mxCell>
      </root>
    </mxGraphModel>
  </diagram>
</mxfile>
